HIERARCHY
ROOT hip
{
	OFFSET 0.000000 0.000000 0.000000 
	CHANNELS 6 Xposition Yposition Zposition Xrotation Zrotation Yrotation
	JOINT abdomen
	{
		OFFSET 0.000000 3.402643 0.000000 
		CHANNELS 3 Xrotation Zrotation Yrotation
		JOINT chest
		{
			OFFSET 0.000000 8.438565 -0.680529 
			CHANNELS 3 Xrotation Zrotation Yrotation
			JOINT neck
			{
				OFFSET 0.000000 10.207942 -0.272212 
				CHANNELS 3 Xrotation Zrotation Yrotation
				JOINT head
				{
					OFFSET 0.000000 3.130431 0.000000 
					CHANNELS 3 Xrotation Zrotation Yrotation
					End Site
					{
						OFFSET 0.000000 3.130435 0.000000 
					}
				}
			}
			JOINT lCollar
			{
				OFFSET 3.470700 6.669187 -0.816635 
				CHANNELS 3 Yrotation Zrotation Xrotation
				JOINT lShldr
				{
					OFFSET 3.198488 0.000000 0.000000 
					CHANNELS 3 Zrotation Yrotation Xrotation
					JOINT lForeArm
					{
						OFFSET 10.139888 0.000000 0.000000 
						CHANNELS 3 Yrotation Zrotation Xrotation
						JOINT lHand
						{
							OFFSET 8.370511 0.000000 0.000000 
							CHANNELS 3 Zrotation Yrotation Xrotation
							End Site
							{
								OFFSET 4.083176 0.000000 0.000000 
							}
						}
					}
				}
			}
			JOINT rCollar
			{
				OFFSET -3.470700 6.669187 -0.816635 
				CHANNELS 3 Yrotation Zrotation Xrotation
				JOINT rShldr
				{
					OFFSET -3.198488 0.000000 0.000000 
					CHANNELS 3 Zrotation Yrotation Xrotation
					JOINT rForeArm
					{
						OFFSET -10.139888 0.000000 0.000000 
						CHANNELS 3 Yrotation Zrotation Xrotation
						JOINT rHand
						{
							OFFSET -8.370511 0.000000 0.000000 
							CHANNELS 3 Zrotation Yrotation Xrotation
							End Site
							{
								OFFSET -4.083176 0.000000 0.000000 
							}
						}
					}
				}
			}
		}
	}
	JOINT lThigh
	{
		OFFSET 5.308129 -1.633274 1.361059 
		CHANNELS 3 Xrotation Zrotation Yrotation
		JOINT lShin
		{
			OFFSET -2.041588 -20.007561 0.000000 
			CHANNELS 3 Xrotation Zrotation Yrotation
			JOINT lFoot
			{
				OFFSET 0.000000 -19.190928 -1.224953 
				CHANNELS 3 Xrotation Yrotation Zrotation
				End Site
				{
					OFFSET 0.000000 -2.449906 4.627600 
				}
			}
		}
	}
	JOINT rThigh
	{
		OFFSET -5.308129 -1.633274 1.361059 
		CHANNELS 3 Xrotation Zrotation Yrotation
		JOINT rShin
		{
			OFFSET 2.041588 -20.007561 0.000000 
			CHANNELS 3 Xrotation Zrotation Yrotation
			JOINT rFoot
			{
				OFFSET 0.000000 -19.190928 -1.224953 
				CHANNELS 3 Xrotation Yrotation Zrotation
				End Site
				{
					OFFSET 0.000000 -2.449906 4.627600 
				}
			}
		}
	}
}
MOTION
Frames: 11
Frame Time: 0.033333
-11.697699 23.074957 25.922026 -22.693155 -13.478831 -13.153450 0.000000 0.000000 0.000000 82.365959 8.748708 4.822935 -6.275906 -0.770316 -3.154668 4.849168 4.676803 -3.879771 -4.367251 10.089967 4.078125 -9.095280 -108.824257 -62.042049 3.043591 -0.779832 2.428558 39.597942 -6.981702 43.674973 2.843390 -9.288378 4.025881 68.206917 28.021158 -41.766666 55.617962 0.240869 2.977192 -19.188328 0.966466 13.394321 -58.017300 44.199074 -14.889443 151.090485 3.741683 -0.361670 -26.078123 -22.663395 3.553460 -37.010769 -39.695751 -8.650783 1.486600 4.901211 44.704262 33.444881 18.657106 17.679205 
-11.958005 22.394144 25.970098 -26.311346 -10.810413 -10.392005 0.000000 0.000000 0.000000 81.879799 9.915792 5.513134 -6.253992 -1.391890 -4.649910 9.608376 4.356584 -5.269098 -4.356523 10.151323 4.049413 -9.438661 -110.548241 -59.375359 3.084272 -0.817205 2.428472 31.532778 -4.797647 39.673397 2.844206 -9.230707 3.995393 69.531174 25.438620 -45.266327 51.121056 0.309147 2.914487 -22.452448 1.827199 12.028614 -59.700642 42.312088 -16.395937 152.175323 3.751311 -0.863467 -21.065920 -24.068245 6.216798 -38.669514 -36.413155 -7.545234 2.482222 4.783540 36.119198 31.418465 9.812472 16.106915 
-12.218325 21.711773 26.020826 -29.775038 -7.972634 -7.841225 0.000000 0.000000 0.000000 81.407761 11.069518 6.191403 -6.227873 -2.019583 -6.146663 14.376531 4.161130 -6.677242 -4.347487 10.211930 4.030290 -9.548599 -112.273155 -56.958435 3.115197 -0.854991 2.428406 23.405178 -3.236509 35.457668 2.845084 -9.173040 3.964911 70.996758 22.935347 -48.718933 46.589981 0.367796 2.853926 -25.751879 2.607849 10.608621 -61.217762 40.386559 -17.739252 153.250854 3.784480 -1.337123 -15.951476 -25.266590 9.045521 -40.174976 -33.124172 -6.620763 3.462327 4.812721 27.527588 29.165556 1.128911 14.255746 
-12.476870 20.880075 26.338329 -33.552349 -4.454462 -6.416522 0.000000 0.000000 0.000000 81.017342 11.502106 6.400157 -6.187334 -2.451591 -7.135714 19.328432 4.530415 -7.591627 -4.335633 10.233565 4.009435 -9.147503 -114.000549 -57.140614 3.094857 -0.836305 2.428450 20.497158 -4.925154 36.451084 2.840573 -9.154524 3.944096 71.600044 20.774981 -49.972828 39.416359 0.469619 2.746747 -30.110729 3.439004 8.907934 -59.028496 39.256336 -18.056122 154.443344 3.775123 -2.627610 -16.020288 -25.365061 8.369447 -40.399616 -29.374338 -7.040762 4.080882 4.667247 21.993683 24.002871 0.944858 12.272507 
-12.736759 20.048861 26.656708 -37.228062 -0.836341 -5.234956 0.000000 0.000000 0.000000 80.620399 11.934210 6.609246 -6.138319 -2.900254 -8.135770 24.268511 4.984384 -8.468995 -4.335261 10.253787 3.999849 -8.836552 -115.730278 -57.242775 3.084272 -0.817205 2.428472 17.552341 -6.571411 37.558453 2.847382 -9.134862 3.934437 72.259598 18.648777 -51.240562 32.277420 0.585518 2.658639 -34.506321 4.133368 7.168935 -56.879524 38.133148 -18.438612 155.594620 3.790138 -3.971357 -16.063459 -25.487904 7.764400 -40.632877 -25.623610 -7.445458 4.704908 4.579080 16.500326 18.921726 0.984824 10.312057 
-13.131843 19.266184 27.063496 -40.034172 3.478776 -3.776205 0.000000 0.000000 0.000000 79.829071 12.616637 6.876858 -6.069746 -3.599456 -9.775664 27.180861 5.596463 -10.077185 -4.360157 10.293715 3.961382 -11.567631 -117.807678 -54.416706 3.053761 -0.789176 2.428537 14.585979 -8.265520 40.186050 2.807643 -9.100268 3.884820 74.717247 17.435173 -54.254906 28.274603 0.634979 2.614441 -40.807652 5.449944 7.139539 -56.586704 37.225197 -20.544584 156.333420 3.744725 -6.769626 -14.760081 -28.308590 9.570237 -40.572052 -22.604485 -7.441805 4.711081 4.536961 15.456926 19.749035 1.309394 10.946424 
-13.526001 18.484945 27.470251 -42.746933 7.873369 -2.513566 0.000000 0.000000 0.000000 79.031006 13.288674 7.135872 -5.977657 -4.298148 -11.429141 30.079645 6.303971 -11.652568 -4.382549 10.324689 3.911593 -13.918118 -119.941467 -51.984406 3.022836 -0.751389 2.428600 11.543932 -9.813383 42.878426 2.758889 -9.076004 3.835228 77.223991 16.338030 -57.311333 24.321556 0.684154 2.571643 -47.115059 6.750346 6.972968 -56.247475 36.296021 -22.595272 157.063370 3.714227 -9.613024 -13.296928 -31.034067 11.484324 -40.486492 -19.598696 -7.425798 4.728623 4.498080 14.355828 20.555075 1.628140 11.572664 
-13.827334 17.848932 27.873703 -44.444538 13.561111 -1.295625 0.000000 0.000000 0.000000 77.456665 13.649497 7.066773 -5.835431 -5.177425 -13.435225 31.561422 8.011086 -13.690709 -4.411511 10.336324 3.852186 -15.358809 -122.711914 -51.215649 2.738941 -0.744343 2.419447 10.043949 -10.814057 43.533817 2.719667 -9.070979 3.775974 79.684059 14.476304 -61.556221 24.292727 0.673083 2.572238 -51.965439 6.352055 7.293934 -57.214920 33.210876 -23.446848 157.152374 3.587241 -15.746438 -8.802695 -29.380281 13.249192 -39.771309 -17.331705 -7.789642 4.696122 4.423210 12.586662 19.233988 1.836455 11.954402 
-14.128641 17.215075 28.275011 -46.055119 19.277189 -0.237808 0.000000 0.000000 0.000000 75.876541 13.991314 6.986146 -5.666962 -6.044699 -15.449656 32.973717 9.776192 -15.681870 -4.428940 10.349419 3.783248 -16.604773 -125.482353 -50.666595 2.464394 -0.727035 2.410210 8.563648 -11.798605 44.217300 2.669160 -9.066963 3.707108 82.259048 12.786439 -65.821739 24.282970 0.672645 2.572436 -56.805286 5.977745 7.636891 -58.083874 30.126629 -24.207016 157.267899 3.471274 -21.904684 -4.506523 -27.585638 14.811135 -39.064396 -15.064387 -8.105974 4.660067 4.340898 10.827590 17.918098 2.029882 12.408963 
-14.427488 16.797920 28.460714 -46.148884 24.296875 0.034738 0.000000 0.000000 0.000000 73.665382 13.329051 6.344923 -5.564983 -6.722237 -16.868416 33.742218 11.538750 -17.152411 -4.353723 10.320183 3.703377 -16.855398 -127.290138 -52.198154 2.728360 -0.725241 2.419464 8.966500 -12.474546 44.985237 2.727400 -9.105309 3.628332 84.220284 11.098020 -67.953018 25.447474 0.653541 2.583633 -60.967697 4.669892 7.152071 -56.915203 28.788004 -23.006048 156.526672 3.334787 -28.356077 -7.043284 -24.359983 12.644526 -38.949722 -11.941023 -8.064173 4.905687 4.322147 9.636093 20.350817 3.397898 16.930193 
-14.727239 16.385546 28.644489 -46.212502 29.306221 0.336735 0.000000 0.000000 0.000000 71.468636 12.662749 5.746983 -5.446036 -7.394785 -18.283213 34.463863 13.335214 -18.613247 -4.278592 10.290763 3.625239 -17.150572 -129.088943 -53.699833 2.992202 -0.723870 2.418911 9.389687 -13.156928 45.741764 2.775795 -9.144427 3.549587 86.216270 9.472064 -70.154907 26.630949 0.650379 2.601259 -65.083786 3.353415 6.757032 -55.791016 27.401075 -21.841488 155.804306 3.102820 -34.746597 -9.349550 -21.057816 10.687741 -38.806923 -8.828035 -7.997895 5.161539 4.304964 8.416129 22.644291 4.965127 21.367718 
